<svg width="169" height="164" viewBox="0 0 169 164" fill="none" xmlns="http://www.w3.org/2000/svg">
<g clip-path="url(#clip0_183_72883)">
<path d="M106.75 36.8837H61.44C60.4075 36.8849 59.4176 37.2953 58.6875 38.0248C57.9574 38.7543 57.5467 39.7433 57.5455 40.775V141.392L57.0262 141.55L45.911 144.951C45.3842 145.112 44.8152 145.057 44.3289 144.799C43.8427 144.54 43.4788 144.1 43.3173 143.574L10.2547 35.667C10.0938 35.1406 10.1486 34.572 10.4072 34.086C10.6657 33.6001 11.1067 33.2365 11.6334 33.0753L28.7619 27.835L78.4179 12.6484L95.5462 7.4081C95.8069 7.32794 96.0808 7.29993 96.3524 7.32567C96.6239 7.35141 96.8876 7.4304 97.1286 7.55811C97.3695 7.68581 97.5828 7.85974 97.7564 8.06993C97.93 8.28012 98.0604 8.52244 98.1401 8.78304L106.591 36.3648L106.75 36.8837Z" fill="#DADBE1"/>
<path d="M116.637 36.3641L106.452 3.12169C106.282 2.56781 106.005 2.05272 105.636 1.60586C105.268 1.159 104.814 0.78912 104.302 0.517364C103.79 0.245608 103.23 0.0772963 102.653 0.0220527C102.076 -0.033191 101.494 0.0257162 100.939 0.195402L76.8579 7.5604L27.2045 22.7496L3.12298 30.1172C2.00428 30.4604 1.06758 31.2331 0.518476 32.2657C-0.0306255 33.2982 -0.147262 34.5063 0.194172 35.6247L35.0066 149.234C35.284 150.136 35.8437 150.927 36.6035 151.488C37.3633 152.05 38.2833 152.353 39.2285 152.354C39.6659 152.355 40.1009 152.289 40.5188 152.16L57.0267 147.111L57.546 146.951V146.408L57.0267 146.567L40.3656 151.664C39.3782 151.965 38.3116 151.862 37.4 151.378C36.4883 150.894 35.806 150.069 35.5026 149.083L0.692786 35.4717C0.542478 34.9831 0.490092 34.4698 0.538625 33.961C0.587158 33.4523 0.735654 32.958 0.975618 32.5067C1.21558 32.0553 1.5423 31.6557 1.93706 31.3307C2.33181 31.0057 2.78685 30.7617 3.27612 30.6127L27.3577 23.2451L77.0112 8.0585L101.093 0.690904C101.464 0.577743 101.85 0.520045 102.238 0.519684C103.07 0.521552 103.881 0.789783 104.55 1.28509C105.219 1.7804 105.712 2.47675 105.956 3.27215L116.095 36.3641L116.256 36.8829H116.796L116.637 36.3641Z" fill="#DADBE1"/>
<path d="M31.8529 33.1588C31.3525 33.1584 30.8654 32.9978 30.463 32.7006C30.0606 32.4033 29.7641 31.985 29.6171 31.5071L26.2728 20.5928C26.183 20.2996 26.1518 19.9916 26.1811 19.6864C26.2104 19.3811 26.2995 19.0847 26.4435 18.8139C26.5875 18.5431 26.7834 18.3033 27.0201 18.1082C27.2569 17.9131 27.5298 17.7665 27.8232 17.6768L73.5039 3.70332C74.0965 3.52264 74.7366 3.58426 75.2838 3.87466C75.831 4.16506 76.2405 4.6605 76.4224 5.25226L79.7667 16.1667C79.9474 16.7588 79.8857 17.3984 79.5951 17.9451C79.3044 18.4918 78.8086 18.9009 78.2165 19.0828L32.5356 33.0563C32.3144 33.1241 32.0843 33.1587 31.8529 33.1588Z" fill="#78797D"/>
<path d="M49.3715 11.662C52.2394 11.662 54.5643 9.3391 54.5643 6.4736C54.5643 3.6081 52.2394 1.28516 49.3715 1.28516C46.5036 1.28516 44.1787 3.6081 44.1787 6.4736C44.1787 9.3391 46.5036 11.662 49.3715 11.662Z" fill="#78797D"/>
<path d="M49.3712 9.75847C51.1873 9.75847 52.6595 8.28751 52.6595 6.47298C52.6595 4.65846 51.1873 3.1875 49.3712 3.1875C47.5552 3.1875 46.083 4.65846 46.083 6.47298C46.083 8.28751 47.5552 9.75847 49.3712 9.75847Z" fill="#F1F2F5"/>
<path d="M156.468 151.029H68.7099C68.1248 151.028 67.5638 150.796 67.1501 150.382C66.7363 149.969 66.5036 149.408 66.5029 148.824V43.7578C66.5036 43.1732 66.7363 42.6127 67.15 42.1993C67.5638 41.7859 68.1247 41.5534 68.7099 41.5527H156.468C157.053 41.5534 157.614 41.7859 158.028 42.1993C158.442 42.6127 158.674 43.1732 158.675 43.7578V148.824C158.674 149.408 158.441 149.969 158.028 150.382C157.614 150.796 157.053 151.028 156.468 151.029Z" fill="#DADBE1"/>
<path d="M116.094 36.3633H61.4402C60.2701 36.3649 59.1484 36.8301 58.321 37.6568C57.4936 38.4835 57.028 39.6043 57.0264 40.7735V146.566L57.5456 146.408V40.7735C57.5469 39.7418 57.9576 38.7528 58.6877 38.0233C59.4178 37.2938 60.4077 36.8834 61.4402 36.8821H116.255L116.094 36.3633ZM163.738 36.3633H61.4402C60.2701 36.3649 59.1484 36.8301 58.321 37.6568C57.4936 38.4835 57.028 39.6043 57.0264 40.7735V159.589C57.028 160.758 57.4936 161.879 58.321 162.706C59.1484 163.532 60.2701 163.997 61.4402 163.999H163.738C164.908 163.997 166.03 163.532 166.857 162.706C167.685 161.879 168.15 160.758 168.152 159.589V40.7735C168.15 39.6043 167.685 38.4835 166.857 37.6568C166.03 36.8301 164.908 36.3649 163.738 36.3633ZM167.633 159.589C167.632 160.621 167.221 161.61 166.491 162.339C165.761 163.069 164.771 163.479 163.738 163.48H61.4402C60.4077 163.479 59.4178 163.069 58.6877 162.339C57.9576 161.61 57.5469 160.621 57.5456 159.589V40.7735C57.5469 39.7418 57.9576 38.7528 58.6877 38.0233C59.4178 37.2938 60.4077 36.8834 61.4402 36.8821H163.738C164.771 36.8834 165.761 37.2938 166.491 38.0233C167.221 38.7528 167.632 39.7418 167.633 40.7735V159.589Z" fill="#DADBE1"/>
<path d="M136.476 47.7795H88.7025C88.0829 47.7788 87.489 47.5326 87.0509 47.0949C86.6128 46.6572 86.3664 46.0637 86.3657 45.4447V34.0301C86.3664 33.4111 86.6128 32.8176 87.0509 32.3799C87.489 31.9422 88.0829 31.696 88.7025 31.6953H136.476C137.096 31.696 137.69 31.9422 138.128 32.3799C138.566 32.8176 138.812 33.4111 138.813 34.0301V45.4447C138.812 46.0637 138.566 46.6572 138.128 47.0949C137.69 47.5326 137.096 47.7788 136.476 47.7795Z" fill="#78797D"/>
<path d="M112.589 32.4726C115.457 32.4726 117.782 30.1496 117.782 27.2841C117.782 24.4186 115.457 22.0957 112.589 22.0957C109.721 22.0957 107.396 24.4186 107.396 27.2841C107.396 30.1496 109.721 32.4726 112.589 32.4726Z" fill="#78797D"/>
<path d="M112.589 30.4455C114.336 30.4455 115.752 29.0306 115.752 27.2852C115.752 25.5399 114.336 24.125 112.589 24.125C110.842 24.125 109.426 25.5399 109.426 27.2852C109.426 29.0306 110.842 30.4455 112.589 30.4455Z" fill="#F1F2F5"/>
</g>
<defs>
<clipPath id="clip0_183_72883">
<rect width="168.152" height="164" fill="white"/>
</clipPath>
</defs>
</svg>
