<svg width="31" height="30" viewBox="0 0 31 30" fill="none" xmlns="http://www.w3.org/2000/svg">
<path d="M27.3198 12.692C27.4736 13.5157 27.5573 14.377 27.5573 15.2757C27.5573 22.3057 22.8523 27.3045 15.7461 27.3045C14.13 27.305 12.5297 26.987 11.0366 26.3688C9.54344 25.7506 8.18675 24.8442 7.04403 23.7015C5.9013 22.5588 4.99494 21.2021 4.37673 19.709C3.75852 18.2158 3.44058 16.6155 3.44107 14.9995C3.44058 13.3834 3.75852 11.7831 4.37673 10.29C4.99494 8.79682 5.9013 7.44013 7.04403 6.29741C8.18675 5.15469 9.54344 4.24833 11.0366 3.63012C12.5297 3.01191 14.13 2.69397 15.7461 2.69446C19.0686 2.69446 21.8448 3.91696 23.9748 5.90196L20.5061 9.37071V9.36196C19.2148 8.13196 17.5761 7.50071 15.7461 7.50071C11.6861 7.50071 8.38608 10.9307 8.38608 14.992C8.38608 19.052 11.6861 22.4895 15.7461 22.4895C19.4298 22.4895 21.9373 20.3832 22.4523 17.4907H15.7461V12.692H27.3211H27.3198Z" fill="#3175FA"/>
</svg>
