<svg width="33" height="32" viewBox="0 0 33 32" fill="none" xmlns="http://www.w3.org/2000/svg">
<rect x="0.5" width="32" height="32" rx="4" fill="#3175FA"/>
<path fill-rule="evenodd" clip-rule="evenodd" d="M14.2105 5C14.0938 5 13.985 5.05907 13.9215 5.15694L13.3938 5.96995C13.245 6.19915 13.4095 6.50202 13.6828 6.50202H20.3283C20.5777 6.50202 20.7445 6.24513 20.6429 6.01728L20.2806 5.20427C20.2253 5.08003 20.102 5 19.9659 5H14.2105ZM10.5279 16.4881L14.4283 7.38693C14.4826 7.26026 14.6072 7.17813 14.745 7.17813H19.4619C19.6051 7.17813 19.7334 7.26669 19.7841 7.40059L21.4921 11.9095L23.2292 16.4951C23.2643 16.5877 23.2578 16.6911 23.2114 16.7786L17.7952 26.9839C17.6269 27.3011 17.1464 27.1815 17.1464 26.8224V15.2163C17.1464 15.2101 17.1461 15.204 17.1456 15.198C17.9104 15.0891 18.4985 14.4316 18.4985 13.6367C18.4985 12.7657 17.7924 12.0596 16.9214 12.0596C16.0503 12.0596 15.3442 12.7657 15.3442 13.6367C15.3442 14.4314 15.932 15.0888 16.6965 15.1979C16.696 15.204 16.6958 15.2101 16.6958 15.2163V26.8411C16.6958 27.1989 16.2178 27.3196 16.048 27.0046L10.5412 16.7872C10.4914 16.6948 10.4865 16.5846 10.5279 16.4881Z" fill="white"/>
</svg>
